<mxfile host="app.diagrams.net" agent="Mozilla/5.0 (Windows NT 10.0; Win64; x64) AppleWebKit/537.36 (KHTML, like Gecko) Chrome/132.0.0.0 Safari/537.36" version="26.0.6">
  <diagram id="R2lEEEUBdFMjLlhIrx00" name="Page-1">
    <mxGraphModel dx="1040" dy="647" grid="1" gridSize="10" guides="1" tooltips="1" connect="1" arrows="1" fold="1" page="1" pageScale="1" pageWidth="850" pageHeight="1100" math="0" shadow="0" extFonts="Permanent Marker^https://fonts.googleapis.com/css?family=Permanent+Marker">
      <root>
        <mxCell id="0" />
        <mxCell id="1" parent="0" />
        <mxCell id="NbmsGISIxCD2SphW_Kis-65" value="PATIENTS" style="shape=table;startSize=30;container=1;collapsible=0;childLayout=tableLayout;shadow=0;" vertex="1" parent="1">
          <mxGeometry x="85" y="210" width="335" height="280" as="geometry" />
        </mxCell>
        <mxCell id="NbmsGISIxCD2SphW_Kis-66" value="" style="shape=tableRow;horizontal=0;startSize=0;swimlaneHead=0;swimlaneBody=0;strokeColor=inherit;top=0;left=0;bottom=0;right=0;collapsible=0;dropTarget=0;fillColor=none;points=[[0,0.5],[1,0.5]];portConstraint=eastwest;" vertex="1" parent="NbmsGISIxCD2SphW_Kis-65">
          <mxGeometry y="30" width="335" height="31" as="geometry" />
        </mxCell>
        <mxCell id="NbmsGISIxCD2SphW_Kis-67" value="Field" style="shape=partialRectangle;html=1;whiteSpace=wrap;connectable=0;strokeColor=inherit;overflow=hidden;fillColor=none;top=0;left=0;bottom=0;right=0;pointerEvents=1;" vertex="1" parent="NbmsGISIxCD2SphW_Kis-66">
          <mxGeometry width="168" height="31" as="geometry">
            <mxRectangle width="168" height="31" as="alternateBounds" />
          </mxGeometry>
        </mxCell>
        <mxCell id="NbmsGISIxCD2SphW_Kis-68" value="Data type" style="shape=partialRectangle;html=1;whiteSpace=wrap;connectable=0;strokeColor=inherit;overflow=hidden;fillColor=none;top=0;left=0;bottom=0;right=0;pointerEvents=1;" vertex="1" parent="NbmsGISIxCD2SphW_Kis-66">
          <mxGeometry x="168" width="167" height="31" as="geometry">
            <mxRectangle width="167" height="31" as="alternateBounds" />
          </mxGeometry>
        </mxCell>
        <mxCell id="NbmsGISIxCD2SphW_Kis-69" value="" style="shape=tableRow;horizontal=0;startSize=0;swimlaneHead=0;swimlaneBody=0;strokeColor=inherit;top=0;left=0;bottom=0;right=0;collapsible=0;dropTarget=0;fillColor=none;points=[[0,0.5],[1,0.5]];portConstraint=eastwest;" vertex="1" parent="NbmsGISIxCD2SphW_Kis-65">
          <mxGeometry y="61" width="335" height="30" as="geometry" />
        </mxCell>
        <mxCell id="NbmsGISIxCD2SphW_Kis-70" value="Patient-id" style="shape=partialRectangle;html=1;whiteSpace=wrap;connectable=0;strokeColor=inherit;overflow=hidden;fillColor=none;top=0;left=0;bottom=0;right=0;pointerEvents=1;" vertex="1" parent="NbmsGISIxCD2SphW_Kis-69">
          <mxGeometry width="168" height="30" as="geometry">
            <mxRectangle width="168" height="30" as="alternateBounds" />
          </mxGeometry>
        </mxCell>
        <mxCell id="NbmsGISIxCD2SphW_Kis-71" value="INT (AUTO INCREMENT)" style="shape=partialRectangle;html=1;whiteSpace=wrap;connectable=0;strokeColor=inherit;overflow=hidden;fillColor=none;top=0;left=0;bottom=0;right=0;pointerEvents=1;" vertex="1" parent="NbmsGISIxCD2SphW_Kis-69">
          <mxGeometry x="168" width="167" height="30" as="geometry">
            <mxRectangle width="167" height="30" as="alternateBounds" />
          </mxGeometry>
        </mxCell>
        <mxCell id="NbmsGISIxCD2SphW_Kis-72" value="" style="shape=tableRow;horizontal=0;startSize=0;swimlaneHead=0;swimlaneBody=0;strokeColor=inherit;top=0;left=0;bottom=0;right=0;collapsible=0;dropTarget=0;fillColor=none;points=[[0,0.5],[1,0.5]];portConstraint=eastwest;" vertex="1" parent="NbmsGISIxCD2SphW_Kis-65">
          <mxGeometry y="91" width="335" height="31" as="geometry" />
        </mxCell>
        <mxCell id="NbmsGISIxCD2SphW_Kis-73" value="First_name" style="shape=partialRectangle;html=1;whiteSpace=wrap;connectable=0;strokeColor=inherit;overflow=hidden;fillColor=none;top=0;left=0;bottom=0;right=0;pointerEvents=1;" vertex="1" parent="NbmsGISIxCD2SphW_Kis-72">
          <mxGeometry width="168" height="31" as="geometry">
            <mxRectangle width="168" height="31" as="alternateBounds" />
          </mxGeometry>
        </mxCell>
        <mxCell id="NbmsGISIxCD2SphW_Kis-74" value="VARCHAR" style="shape=partialRectangle;html=1;whiteSpace=wrap;connectable=0;strokeColor=inherit;overflow=hidden;fillColor=none;top=0;left=0;bottom=0;right=0;pointerEvents=1;" vertex="1" parent="NbmsGISIxCD2SphW_Kis-72">
          <mxGeometry x="168" width="167" height="31" as="geometry">
            <mxRectangle width="167" height="31" as="alternateBounds" />
          </mxGeometry>
        </mxCell>
        <mxCell id="NbmsGISIxCD2SphW_Kis-75" value="" style="shape=tableRow;horizontal=0;startSize=0;swimlaneHead=0;swimlaneBody=0;strokeColor=inherit;top=0;left=0;bottom=0;right=0;collapsible=0;dropTarget=0;fillColor=none;points=[[0,0.5],[1,0.5]];portConstraint=eastwest;" vertex="1" parent="NbmsGISIxCD2SphW_Kis-65">
          <mxGeometry y="122" width="335" height="31" as="geometry" />
        </mxCell>
        <mxCell id="NbmsGISIxCD2SphW_Kis-76" value="Last_name" style="shape=partialRectangle;html=1;whiteSpace=wrap;connectable=0;strokeColor=inherit;overflow=hidden;fillColor=none;top=0;left=0;bottom=0;right=0;pointerEvents=1;" vertex="1" parent="NbmsGISIxCD2SphW_Kis-75">
          <mxGeometry width="168" height="31" as="geometry">
            <mxRectangle width="168" height="31" as="alternateBounds" />
          </mxGeometry>
        </mxCell>
        <mxCell id="NbmsGISIxCD2SphW_Kis-77" value="VARCHAR" style="shape=partialRectangle;html=1;whiteSpace=wrap;connectable=0;strokeColor=inherit;overflow=hidden;fillColor=none;top=0;left=0;bottom=0;right=0;pointerEvents=1;" vertex="1" parent="NbmsGISIxCD2SphW_Kis-75">
          <mxGeometry x="168" width="167" height="31" as="geometry">
            <mxRectangle width="167" height="31" as="alternateBounds" />
          </mxGeometry>
        </mxCell>
        <mxCell id="NbmsGISIxCD2SphW_Kis-78" value="" style="shape=tableRow;horizontal=0;startSize=0;swimlaneHead=0;swimlaneBody=0;strokeColor=inherit;top=0;left=0;bottom=0;right=0;collapsible=0;dropTarget=0;fillColor=none;points=[[0,0.5],[1,0.5]];portConstraint=eastwest;" vertex="1" parent="NbmsGISIxCD2SphW_Kis-65">
          <mxGeometry y="153" width="335" height="35" as="geometry" />
        </mxCell>
        <mxCell id="NbmsGISIxCD2SphW_Kis-79" value="Date_of_birth" style="shape=partialRectangle;html=1;whiteSpace=wrap;connectable=0;strokeColor=inherit;overflow=hidden;fillColor=none;top=0;left=0;bottom=0;right=0;pointerEvents=1;" vertex="1" parent="NbmsGISIxCD2SphW_Kis-78">
          <mxGeometry width="168" height="35" as="geometry">
            <mxRectangle width="168" height="35" as="alternateBounds" />
          </mxGeometry>
        </mxCell>
        <mxCell id="NbmsGISIxCD2SphW_Kis-80" value="DATE" style="shape=partialRectangle;html=1;whiteSpace=wrap;connectable=0;strokeColor=inherit;overflow=hidden;fillColor=none;top=0;left=0;bottom=0;right=0;pointerEvents=1;" vertex="1" parent="NbmsGISIxCD2SphW_Kis-78">
          <mxGeometry x="168" width="167" height="35" as="geometry">
            <mxRectangle width="167" height="35" as="alternateBounds" />
          </mxGeometry>
        </mxCell>
        <mxCell id="NbmsGISIxCD2SphW_Kis-81" value="" style="shape=tableRow;horizontal=0;startSize=0;swimlaneHead=0;swimlaneBody=0;strokeColor=inherit;top=0;left=0;bottom=0;right=0;collapsible=0;dropTarget=0;fillColor=none;points=[[0,0.5],[1,0.5]];portConstraint=eastwest;" vertex="1" parent="NbmsGISIxCD2SphW_Kis-65">
          <mxGeometry y="188" width="335" height="31" as="geometry" />
        </mxCell>
        <mxCell id="NbmsGISIxCD2SphW_Kis-82" value="Gender" style="shape=partialRectangle;html=1;whiteSpace=wrap;connectable=0;strokeColor=inherit;overflow=hidden;fillColor=none;top=0;left=0;bottom=0;right=0;pointerEvents=1;" vertex="1" parent="NbmsGISIxCD2SphW_Kis-81">
          <mxGeometry width="168" height="31" as="geometry">
            <mxRectangle width="168" height="31" as="alternateBounds" />
          </mxGeometry>
        </mxCell>
        <mxCell id="NbmsGISIxCD2SphW_Kis-83" value="VARCHAR" style="shape=partialRectangle;html=1;whiteSpace=wrap;connectable=0;strokeColor=inherit;overflow=hidden;fillColor=none;top=0;left=0;bottom=0;right=0;pointerEvents=1;" vertex="1" parent="NbmsGISIxCD2SphW_Kis-81">
          <mxGeometry x="168" width="167" height="31" as="geometry">
            <mxRectangle width="167" height="31" as="alternateBounds" />
          </mxGeometry>
        </mxCell>
        <mxCell id="NbmsGISIxCD2SphW_Kis-84" value="" style="shape=tableRow;horizontal=0;startSize=0;swimlaneHead=0;swimlaneBody=0;strokeColor=inherit;top=0;left=0;bottom=0;right=0;collapsible=0;dropTarget=0;fillColor=none;points=[[0,0.5],[1,0.5]];portConstraint=eastwest;" vertex="1" parent="NbmsGISIxCD2SphW_Kis-65">
          <mxGeometry y="219" width="335" height="30" as="geometry" />
        </mxCell>
        <mxCell id="NbmsGISIxCD2SphW_Kis-85" value="Language" style="shape=partialRectangle;html=1;whiteSpace=wrap;connectable=0;strokeColor=inherit;overflow=hidden;fillColor=none;top=0;left=0;bottom=0;right=0;pointerEvents=1;" vertex="1" parent="NbmsGISIxCD2SphW_Kis-84">
          <mxGeometry width="168" height="30" as="geometry">
            <mxRectangle width="168" height="30" as="alternateBounds" />
          </mxGeometry>
        </mxCell>
        <mxCell id="NbmsGISIxCD2SphW_Kis-86" value="VARCHAR" style="shape=partialRectangle;html=1;whiteSpace=wrap;connectable=0;strokeColor=inherit;overflow=hidden;fillColor=none;top=0;left=0;bottom=0;right=0;pointerEvents=1;" vertex="1" parent="NbmsGISIxCD2SphW_Kis-84">
          <mxGeometry x="168" width="167" height="30" as="geometry">
            <mxRectangle width="167" height="30" as="alternateBounds" />
          </mxGeometry>
        </mxCell>
        <mxCell id="NbmsGISIxCD2SphW_Kis-87" value="" style="shape=tableRow;horizontal=0;startSize=0;swimlaneHead=0;swimlaneBody=0;strokeColor=inherit;top=0;left=0;bottom=0;right=0;collapsible=0;dropTarget=0;fillColor=none;points=[[0,0.5],[1,0.5]];portConstraint=eastwest;" vertex="1" parent="NbmsGISIxCD2SphW_Kis-65">
          <mxGeometry y="249" width="335" height="31" as="geometry" />
        </mxCell>
        <mxCell id="NbmsGISIxCD2SphW_Kis-88" value="" style="shape=partialRectangle;html=1;whiteSpace=wrap;connectable=0;strokeColor=inherit;overflow=hidden;fillColor=none;top=0;left=0;bottom=0;right=0;pointerEvents=1;" vertex="1" parent="NbmsGISIxCD2SphW_Kis-87">
          <mxGeometry width="168" height="31" as="geometry">
            <mxRectangle width="168" height="31" as="alternateBounds" />
          </mxGeometry>
        </mxCell>
        <mxCell id="NbmsGISIxCD2SphW_Kis-89" value="" style="shape=partialRectangle;html=1;whiteSpace=wrap;connectable=0;strokeColor=inherit;overflow=hidden;fillColor=none;top=0;left=0;bottom=0;right=0;pointerEvents=1;" vertex="1" parent="NbmsGISIxCD2SphW_Kis-87">
          <mxGeometry x="168" width="167" height="31" as="geometry">
            <mxRectangle width="167" height="31" as="alternateBounds" />
          </mxGeometry>
        </mxCell>
        <mxCell id="NbmsGISIxCD2SphW_Kis-125" value="PK" style="text;html=1;align=center;verticalAlign=middle;whiteSpace=wrap;rounded=0;" vertex="1" parent="1">
          <mxGeometry x="85" y="240" width="60" height="30" as="geometry" />
        </mxCell>
        <mxCell id="NbmsGISIxCD2SphW_Kis-126" value="PROVIDERS" style="shape=table;startSize=30;container=1;collapsible=0;childLayout=tableLayout;shadow=0;" vertex="1" parent="1">
          <mxGeometry x="526" y="210" width="335" height="280" as="geometry" />
        </mxCell>
        <mxCell id="NbmsGISIxCD2SphW_Kis-127" value="" style="shape=tableRow;horizontal=0;startSize=0;swimlaneHead=0;swimlaneBody=0;strokeColor=inherit;top=0;left=0;bottom=0;right=0;collapsible=0;dropTarget=0;fillColor=none;points=[[0,0.5],[1,0.5]];portConstraint=eastwest;" vertex="1" parent="NbmsGISIxCD2SphW_Kis-126">
          <mxGeometry y="30" width="335" height="31" as="geometry" />
        </mxCell>
        <mxCell id="NbmsGISIxCD2SphW_Kis-128" value="Field" style="shape=partialRectangle;html=1;whiteSpace=wrap;connectable=0;strokeColor=inherit;overflow=hidden;fillColor=none;top=0;left=0;bottom=0;right=0;pointerEvents=1;" vertex="1" parent="NbmsGISIxCD2SphW_Kis-127">
          <mxGeometry width="168" height="31" as="geometry">
            <mxRectangle width="168" height="31" as="alternateBounds" />
          </mxGeometry>
        </mxCell>
        <mxCell id="NbmsGISIxCD2SphW_Kis-129" value="Data type" style="shape=partialRectangle;html=1;whiteSpace=wrap;connectable=0;strokeColor=inherit;overflow=hidden;fillColor=none;top=0;left=0;bottom=0;right=0;pointerEvents=1;" vertex="1" parent="NbmsGISIxCD2SphW_Kis-127">
          <mxGeometry x="168" width="167" height="31" as="geometry">
            <mxRectangle width="167" height="31" as="alternateBounds" />
          </mxGeometry>
        </mxCell>
        <mxCell id="NbmsGISIxCD2SphW_Kis-130" value="" style="shape=tableRow;horizontal=0;startSize=0;swimlaneHead=0;swimlaneBody=0;strokeColor=inherit;top=0;left=0;bottom=0;right=0;collapsible=0;dropTarget=0;fillColor=none;points=[[0,0.5],[1,0.5]];portConstraint=eastwest;" vertex="1" parent="NbmsGISIxCD2SphW_Kis-126">
          <mxGeometry y="61" width="335" height="30" as="geometry" />
        </mxCell>
        <mxCell id="NbmsGISIxCD2SphW_Kis-131" value="Provider_id" style="shape=partialRectangle;html=1;whiteSpace=wrap;connectable=0;strokeColor=inherit;overflow=hidden;fillColor=none;top=0;left=0;bottom=0;right=0;pointerEvents=1;" vertex="1" parent="NbmsGISIxCD2SphW_Kis-130">
          <mxGeometry width="168" height="30" as="geometry">
            <mxRectangle width="168" height="30" as="alternateBounds" />
          </mxGeometry>
        </mxCell>
        <mxCell id="NbmsGISIxCD2SphW_Kis-132" value="INT (AUTO INCREMENT)" style="shape=partialRectangle;html=1;whiteSpace=wrap;connectable=0;strokeColor=inherit;overflow=hidden;fillColor=none;top=0;left=0;bottom=0;right=0;pointerEvents=1;" vertex="1" parent="NbmsGISIxCD2SphW_Kis-130">
          <mxGeometry x="168" width="167" height="30" as="geometry">
            <mxRectangle width="167" height="30" as="alternateBounds" />
          </mxGeometry>
        </mxCell>
        <mxCell id="NbmsGISIxCD2SphW_Kis-133" value="" style="shape=tableRow;horizontal=0;startSize=0;swimlaneHead=0;swimlaneBody=0;strokeColor=inherit;top=0;left=0;bottom=0;right=0;collapsible=0;dropTarget=0;fillColor=none;points=[[0,0.5],[1,0.5]];portConstraint=eastwest;" vertex="1" parent="NbmsGISIxCD2SphW_Kis-126">
          <mxGeometry y="91" width="335" height="31" as="geometry" />
        </mxCell>
        <mxCell id="NbmsGISIxCD2SphW_Kis-134" value="First_name" style="shape=partialRectangle;html=1;whiteSpace=wrap;connectable=0;strokeColor=inherit;overflow=hidden;fillColor=none;top=0;left=0;bottom=0;right=0;pointerEvents=1;" vertex="1" parent="NbmsGISIxCD2SphW_Kis-133">
          <mxGeometry width="168" height="31" as="geometry">
            <mxRectangle width="168" height="31" as="alternateBounds" />
          </mxGeometry>
        </mxCell>
        <mxCell id="NbmsGISIxCD2SphW_Kis-135" value="VARCHAR" style="shape=partialRectangle;html=1;whiteSpace=wrap;connectable=0;strokeColor=inherit;overflow=hidden;fillColor=none;top=0;left=0;bottom=0;right=0;pointerEvents=1;" vertex="1" parent="NbmsGISIxCD2SphW_Kis-133">
          <mxGeometry x="168" width="167" height="31" as="geometry">
            <mxRectangle width="167" height="31" as="alternateBounds" />
          </mxGeometry>
        </mxCell>
        <mxCell id="NbmsGISIxCD2SphW_Kis-136" value="" style="shape=tableRow;horizontal=0;startSize=0;swimlaneHead=0;swimlaneBody=0;strokeColor=inherit;top=0;left=0;bottom=0;right=0;collapsible=0;dropTarget=0;fillColor=none;points=[[0,0.5],[1,0.5]];portConstraint=eastwest;" vertex="1" parent="NbmsGISIxCD2SphW_Kis-126">
          <mxGeometry y="122" width="335" height="31" as="geometry" />
        </mxCell>
        <mxCell id="NbmsGISIxCD2SphW_Kis-137" value="Last_name" style="shape=partialRectangle;html=1;whiteSpace=wrap;connectable=0;strokeColor=inherit;overflow=hidden;fillColor=none;top=0;left=0;bottom=0;right=0;pointerEvents=1;" vertex="1" parent="NbmsGISIxCD2SphW_Kis-136">
          <mxGeometry width="168" height="31" as="geometry">
            <mxRectangle width="168" height="31" as="alternateBounds" />
          </mxGeometry>
        </mxCell>
        <mxCell id="NbmsGISIxCD2SphW_Kis-138" value="VARCHAR" style="shape=partialRectangle;html=1;whiteSpace=wrap;connectable=0;strokeColor=inherit;overflow=hidden;fillColor=none;top=0;left=0;bottom=0;right=0;pointerEvents=1;" vertex="1" parent="NbmsGISIxCD2SphW_Kis-136">
          <mxGeometry x="168" width="167" height="31" as="geometry">
            <mxRectangle width="167" height="31" as="alternateBounds" />
          </mxGeometry>
        </mxCell>
        <mxCell id="NbmsGISIxCD2SphW_Kis-139" value="" style="shape=tableRow;horizontal=0;startSize=0;swimlaneHead=0;swimlaneBody=0;strokeColor=inherit;top=0;left=0;bottom=0;right=0;collapsible=0;dropTarget=0;fillColor=none;points=[[0,0.5],[1,0.5]];portConstraint=eastwest;" vertex="1" parent="NbmsGISIxCD2SphW_Kis-126">
          <mxGeometry y="153" width="335" height="35" as="geometry" />
        </mxCell>
        <mxCell id="NbmsGISIxCD2SphW_Kis-140" value="Provider_specialty" style="shape=partialRectangle;html=1;whiteSpace=wrap;connectable=0;strokeColor=inherit;overflow=hidden;fillColor=none;top=0;left=0;bottom=0;right=0;pointerEvents=1;" vertex="1" parent="NbmsGISIxCD2SphW_Kis-139">
          <mxGeometry width="168" height="35" as="geometry">
            <mxRectangle width="168" height="35" as="alternateBounds" />
          </mxGeometry>
        </mxCell>
        <mxCell id="NbmsGISIxCD2SphW_Kis-141" value="VARCHAR" style="shape=partialRectangle;html=1;whiteSpace=wrap;connectable=0;strokeColor=inherit;overflow=hidden;fillColor=none;top=0;left=0;bottom=0;right=0;pointerEvents=1;" vertex="1" parent="NbmsGISIxCD2SphW_Kis-139">
          <mxGeometry x="168" width="167" height="35" as="geometry">
            <mxRectangle width="167" height="35" as="alternateBounds" />
          </mxGeometry>
        </mxCell>
        <mxCell id="NbmsGISIxCD2SphW_Kis-142" value="" style="shape=tableRow;horizontal=0;startSize=0;swimlaneHead=0;swimlaneBody=0;strokeColor=inherit;top=0;left=0;bottom=0;right=0;collapsible=0;dropTarget=0;fillColor=none;points=[[0,0.5],[1,0.5]];portConstraint=eastwest;" vertex="1" parent="NbmsGISIxCD2SphW_Kis-126">
          <mxGeometry y="188" width="335" height="31" as="geometry" />
        </mxCell>
        <mxCell id="NbmsGISIxCD2SphW_Kis-143" value="Email_address" style="shape=partialRectangle;html=1;whiteSpace=wrap;connectable=0;strokeColor=inherit;overflow=hidden;fillColor=none;top=0;left=0;bottom=0;right=0;pointerEvents=1;" vertex="1" parent="NbmsGISIxCD2SphW_Kis-142">
          <mxGeometry width="168" height="31" as="geometry">
            <mxRectangle width="168" height="31" as="alternateBounds" />
          </mxGeometry>
        </mxCell>
        <mxCell id="NbmsGISIxCD2SphW_Kis-144" value="VARCHAR" style="shape=partialRectangle;html=1;whiteSpace=wrap;connectable=0;strokeColor=inherit;overflow=hidden;fillColor=none;top=0;left=0;bottom=0;right=0;pointerEvents=1;" vertex="1" parent="NbmsGISIxCD2SphW_Kis-142">
          <mxGeometry x="168" width="167" height="31" as="geometry">
            <mxRectangle width="167" height="31" as="alternateBounds" />
          </mxGeometry>
        </mxCell>
        <mxCell id="NbmsGISIxCD2SphW_Kis-145" value="" style="shape=tableRow;horizontal=0;startSize=0;swimlaneHead=0;swimlaneBody=0;strokeColor=inherit;top=0;left=0;bottom=0;right=0;collapsible=0;dropTarget=0;fillColor=none;points=[[0,0.5],[1,0.5]];portConstraint=eastwest;" vertex="1" parent="NbmsGISIxCD2SphW_Kis-126">
          <mxGeometry y="219" width="335" height="30" as="geometry" />
        </mxCell>
        <mxCell id="NbmsGISIxCD2SphW_Kis-146" value="Phone_number" style="shape=partialRectangle;html=1;whiteSpace=wrap;connectable=0;strokeColor=inherit;overflow=hidden;fillColor=none;top=0;left=0;bottom=0;right=0;pointerEvents=1;" vertex="1" parent="NbmsGISIxCD2SphW_Kis-145">
          <mxGeometry width="168" height="30" as="geometry">
            <mxRectangle width="168" height="30" as="alternateBounds" />
          </mxGeometry>
        </mxCell>
        <mxCell id="NbmsGISIxCD2SphW_Kis-147" value="VARCHAR" style="shape=partialRectangle;html=1;whiteSpace=wrap;connectable=0;strokeColor=inherit;overflow=hidden;fillColor=none;top=0;left=0;bottom=0;right=0;pointerEvents=1;" vertex="1" parent="NbmsGISIxCD2SphW_Kis-145">
          <mxGeometry x="168" width="167" height="30" as="geometry">
            <mxRectangle width="167" height="30" as="alternateBounds" />
          </mxGeometry>
        </mxCell>
        <mxCell id="NbmsGISIxCD2SphW_Kis-148" value="" style="shape=tableRow;horizontal=0;startSize=0;swimlaneHead=0;swimlaneBody=0;strokeColor=inherit;top=0;left=0;bottom=0;right=0;collapsible=0;dropTarget=0;fillColor=none;points=[[0,0.5],[1,0.5]];portConstraint=eastwest;" vertex="1" parent="NbmsGISIxCD2SphW_Kis-126">
          <mxGeometry y="249" width="335" height="31" as="geometry" />
        </mxCell>
        <mxCell id="NbmsGISIxCD2SphW_Kis-149" value="Date_joined" style="shape=partialRectangle;html=1;whiteSpace=wrap;connectable=0;strokeColor=inherit;overflow=hidden;fillColor=none;top=0;left=0;bottom=0;right=0;pointerEvents=1;" vertex="1" parent="NbmsGISIxCD2SphW_Kis-148">
          <mxGeometry width="168" height="31" as="geometry">
            <mxRectangle width="168" height="31" as="alternateBounds" />
          </mxGeometry>
        </mxCell>
        <mxCell id="NbmsGISIxCD2SphW_Kis-150" value="DATE" style="shape=partialRectangle;html=1;whiteSpace=wrap;connectable=0;strokeColor=inherit;overflow=hidden;fillColor=none;top=0;left=0;bottom=0;right=0;pointerEvents=1;" vertex="1" parent="NbmsGISIxCD2SphW_Kis-148">
          <mxGeometry x="168" width="167" height="31" as="geometry">
            <mxRectangle width="167" height="31" as="alternateBounds" />
          </mxGeometry>
        </mxCell>
        <mxCell id="NbmsGISIxCD2SphW_Kis-151" value="PK" style="text;html=1;align=center;verticalAlign=middle;whiteSpace=wrap;rounded=0;" vertex="1" parent="1">
          <mxGeometry x="530" y="270" width="60" height="30" as="geometry" />
        </mxCell>
        <mxCell id="NbmsGISIxCD2SphW_Kis-154" value="" style="endArrow=none;html=1;rounded=0;exitX=1.022;exitY=-0.133;exitDx=0;exitDy=0;exitPerimeter=0;" edge="1" parent="1" source="NbmsGISIxCD2SphW_Kis-78">
          <mxGeometry width="50" height="50" relative="1" as="geometry">
            <mxPoint x="476" y="410" as="sourcePoint" />
            <mxPoint x="526" y="360" as="targetPoint" />
            <Array as="points">
              <mxPoint x="420" y="360" />
            </Array>
          </mxGeometry>
        </mxCell>
        <mxCell id="NbmsGISIxCD2SphW_Kis-155" value="Related" style="text;html=1;align=center;verticalAlign=middle;resizable=0;points=[];autosize=1;strokeColor=none;fillColor=none;" vertex="1" parent="1">
          <mxGeometry x="450" y="330" width="60" height="30" as="geometry" />
        </mxCell>
        <mxCell id="NbmsGISIxCD2SphW_Kis-157" value="" style="shape=table;startSize=0;container=1;collapsible=0;childLayout=tableLayout;" vertex="1" parent="1">
          <mxGeometry x="80" y="600" width="380" height="280" as="geometry" />
        </mxCell>
        <mxCell id="NbmsGISIxCD2SphW_Kis-158" value="" style="shape=tableRow;horizontal=0;startSize=0;swimlaneHead=0;swimlaneBody=0;strokeColor=inherit;top=0;left=0;bottom=0;right=0;collapsible=0;dropTarget=0;fillColor=none;points=[[0,0.5],[1,0.5]];portConstraint=eastwest;" vertex="1" parent="NbmsGISIxCD2SphW_Kis-157">
          <mxGeometry width="380" height="40" as="geometry" />
        </mxCell>
        <mxCell id="NbmsGISIxCD2SphW_Kis-159" value="&lt;b&gt;FIELD&lt;/b&gt;" style="shape=partialRectangle;html=1;whiteSpace=wrap;connectable=0;strokeColor=inherit;overflow=hidden;fillColor=none;top=0;left=0;bottom=0;right=0;pointerEvents=1;" vertex="1" parent="NbmsGISIxCD2SphW_Kis-158">
          <mxGeometry width="127" height="40" as="geometry">
            <mxRectangle width="127" height="40" as="alternateBounds" />
          </mxGeometry>
        </mxCell>
        <mxCell id="NbmsGISIxCD2SphW_Kis-160" value="DATA TYPE" style="shape=partialRectangle;html=1;whiteSpace=wrap;connectable=0;strokeColor=inherit;overflow=hidden;fillColor=none;top=0;left=0;bottom=0;right=0;pointerEvents=1;" vertex="1" parent="NbmsGISIxCD2SphW_Kis-158">
          <mxGeometry x="127" width="126" height="40" as="geometry">
            <mxRectangle width="126" height="40" as="alternateBounds" />
          </mxGeometry>
        </mxCell>
        <mxCell id="NbmsGISIxCD2SphW_Kis-161" value="CONSTRAINTS" style="shape=partialRectangle;html=1;whiteSpace=wrap;connectable=0;strokeColor=inherit;overflow=hidden;fillColor=none;top=0;left=0;bottom=0;right=0;pointerEvents=1;" vertex="1" parent="NbmsGISIxCD2SphW_Kis-158">
          <mxGeometry x="253" width="127" height="40" as="geometry">
            <mxRectangle width="127" height="40" as="alternateBounds" />
          </mxGeometry>
        </mxCell>
        <mxCell id="NbmsGISIxCD2SphW_Kis-162" value="" style="shape=tableRow;horizontal=0;startSize=0;swimlaneHead=0;swimlaneBody=0;strokeColor=inherit;top=0;left=0;bottom=0;right=0;collapsible=0;dropTarget=0;fillColor=none;points=[[0,0.5],[1,0.5]];portConstraint=eastwest;" vertex="1" parent="NbmsGISIxCD2SphW_Kis-157">
          <mxGeometry y="40" width="380" height="40" as="geometry" />
        </mxCell>
        <mxCell id="NbmsGISIxCD2SphW_Kis-163" value="students_id" style="shape=partialRectangle;html=1;whiteSpace=wrap;connectable=0;strokeColor=inherit;overflow=hidden;fillColor=none;top=0;left=0;bottom=0;right=0;pointerEvents=1;" vertex="1" parent="NbmsGISIxCD2SphW_Kis-162">
          <mxGeometry width="127" height="40" as="geometry">
            <mxRectangle width="127" height="40" as="alternateBounds" />
          </mxGeometry>
        </mxCell>
        <mxCell id="NbmsGISIxCD2SphW_Kis-164" value="INT" style="shape=partialRectangle;html=1;whiteSpace=wrap;connectable=0;strokeColor=inherit;overflow=hidden;fillColor=none;top=0;left=0;bottom=0;right=0;pointerEvents=1;" vertex="1" parent="NbmsGISIxCD2SphW_Kis-162">
          <mxGeometry x="127" width="126" height="40" as="geometry">
            <mxRectangle width="126" height="40" as="alternateBounds" />
          </mxGeometry>
        </mxCell>
        <mxCell id="NbmsGISIxCD2SphW_Kis-165" value="PK(AUTO INCREMENT)" style="shape=partialRectangle;html=1;whiteSpace=wrap;connectable=0;strokeColor=inherit;overflow=hidden;fillColor=none;top=0;left=0;bottom=0;right=0;pointerEvents=1;" vertex="1" parent="NbmsGISIxCD2SphW_Kis-162">
          <mxGeometry x="253" width="127" height="40" as="geometry">
            <mxRectangle width="127" height="40" as="alternateBounds" />
          </mxGeometry>
        </mxCell>
        <mxCell id="NbmsGISIxCD2SphW_Kis-166" value="" style="shape=tableRow;horizontal=0;startSize=0;swimlaneHead=0;swimlaneBody=0;strokeColor=inherit;top=0;left=0;bottom=0;right=0;collapsible=0;dropTarget=0;fillColor=none;points=[[0,0.5],[1,0.5]];portConstraint=eastwest;" vertex="1" parent="NbmsGISIxCD2SphW_Kis-157">
          <mxGeometry y="80" width="380" height="40" as="geometry" />
        </mxCell>
        <mxCell id="NbmsGISIxCD2SphW_Kis-167" value="first_name" style="shape=partialRectangle;html=1;whiteSpace=wrap;connectable=0;strokeColor=inherit;overflow=hidden;fillColor=none;top=0;left=0;bottom=0;right=0;pointerEvents=1;" vertex="1" parent="NbmsGISIxCD2SphW_Kis-166">
          <mxGeometry width="127" height="40" as="geometry">
            <mxRectangle width="127" height="40" as="alternateBounds" />
          </mxGeometry>
        </mxCell>
        <mxCell id="NbmsGISIxCD2SphW_Kis-168" value="VARCHAR(20)" style="shape=partialRectangle;html=1;whiteSpace=wrap;connectable=0;strokeColor=inherit;overflow=hidden;fillColor=none;top=0;left=0;bottom=0;right=0;pointerEvents=1;" vertex="1" parent="NbmsGISIxCD2SphW_Kis-166">
          <mxGeometry x="127" width="126" height="40" as="geometry">
            <mxRectangle width="126" height="40" as="alternateBounds" />
          </mxGeometry>
        </mxCell>
        <mxCell id="NbmsGISIxCD2SphW_Kis-169" value="NOT NULL" style="shape=partialRectangle;html=1;whiteSpace=wrap;connectable=0;strokeColor=inherit;overflow=hidden;fillColor=none;top=0;left=0;bottom=0;right=0;pointerEvents=1;" vertex="1" parent="NbmsGISIxCD2SphW_Kis-166">
          <mxGeometry x="253" width="127" height="40" as="geometry">
            <mxRectangle width="127" height="40" as="alternateBounds" />
          </mxGeometry>
        </mxCell>
        <mxCell id="NbmsGISIxCD2SphW_Kis-170" value="" style="shape=tableRow;horizontal=0;startSize=0;swimlaneHead=0;swimlaneBody=0;strokeColor=inherit;top=0;left=0;bottom=0;right=0;collapsible=0;dropTarget=0;fillColor=none;points=[[0,0.5],[1,0.5]];portConstraint=eastwest;" vertex="1" parent="NbmsGISIxCD2SphW_Kis-157">
          <mxGeometry y="120" width="380" height="40" as="geometry" />
        </mxCell>
        <mxCell id="NbmsGISIxCD2SphW_Kis-171" value="last_name" style="shape=partialRectangle;html=1;whiteSpace=wrap;connectable=0;strokeColor=inherit;overflow=hidden;fillColor=none;top=0;left=0;bottom=0;right=0;pointerEvents=1;" vertex="1" parent="NbmsGISIxCD2SphW_Kis-170">
          <mxGeometry width="127" height="40" as="geometry">
            <mxRectangle width="127" height="40" as="alternateBounds" />
          </mxGeometry>
        </mxCell>
        <mxCell id="NbmsGISIxCD2SphW_Kis-172" value="VARCHAR(20)" style="shape=partialRectangle;html=1;whiteSpace=wrap;connectable=0;strokeColor=inherit;overflow=hidden;fillColor=none;top=0;left=0;bottom=0;right=0;pointerEvents=1;" vertex="1" parent="NbmsGISIxCD2SphW_Kis-170">
          <mxGeometry x="127" width="126" height="40" as="geometry">
            <mxRectangle width="126" height="40" as="alternateBounds" />
          </mxGeometry>
        </mxCell>
        <mxCell id="NbmsGISIxCD2SphW_Kis-173" value="NOT NULL" style="shape=partialRectangle;html=1;whiteSpace=wrap;connectable=0;strokeColor=inherit;overflow=hidden;fillColor=none;top=0;left=0;bottom=0;right=0;pointerEvents=1;" vertex="1" parent="NbmsGISIxCD2SphW_Kis-170">
          <mxGeometry x="253" width="127" height="40" as="geometry">
            <mxRectangle width="127" height="40" as="alternateBounds" />
          </mxGeometry>
        </mxCell>
        <mxCell id="NbmsGISIxCD2SphW_Kis-174" value="" style="shape=tableRow;horizontal=0;startSize=0;swimlaneHead=0;swimlaneBody=0;strokeColor=inherit;top=0;left=0;bottom=0;right=0;collapsible=0;dropTarget=0;fillColor=none;points=[[0,0.5],[1,0.5]];portConstraint=eastwest;" vertex="1" parent="NbmsGISIxCD2SphW_Kis-157">
          <mxGeometry y="160" width="380" height="40" as="geometry" />
        </mxCell>
        <mxCell id="NbmsGISIxCD2SphW_Kis-175" value="date_of_birth" style="shape=partialRectangle;html=1;whiteSpace=wrap;connectable=0;strokeColor=inherit;overflow=hidden;fillColor=none;top=0;left=0;bottom=0;right=0;pointerEvents=1;" vertex="1" parent="NbmsGISIxCD2SphW_Kis-174">
          <mxGeometry width="127" height="40" as="geometry">
            <mxRectangle width="127" height="40" as="alternateBounds" />
          </mxGeometry>
        </mxCell>
        <mxCell id="NbmsGISIxCD2SphW_Kis-176" value="DATE" style="shape=partialRectangle;html=1;whiteSpace=wrap;connectable=0;strokeColor=inherit;overflow=hidden;fillColor=none;top=0;left=0;bottom=0;right=0;pointerEvents=1;" vertex="1" parent="NbmsGISIxCD2SphW_Kis-174">
          <mxGeometry x="127" width="126" height="40" as="geometry">
            <mxRectangle width="126" height="40" as="alternateBounds" />
          </mxGeometry>
        </mxCell>
        <mxCell id="NbmsGISIxCD2SphW_Kis-177" value="NOT NULL" style="shape=partialRectangle;html=1;whiteSpace=wrap;connectable=0;strokeColor=inherit;overflow=hidden;fillColor=none;top=0;left=0;bottom=0;right=0;pointerEvents=1;" vertex="1" parent="NbmsGISIxCD2SphW_Kis-174">
          <mxGeometry x="253" width="127" height="40" as="geometry">
            <mxRectangle width="127" height="40" as="alternateBounds" />
          </mxGeometry>
        </mxCell>
        <mxCell id="NbmsGISIxCD2SphW_Kis-178" value="" style="shape=tableRow;horizontal=0;startSize=0;swimlaneHead=0;swimlaneBody=0;strokeColor=inherit;top=0;left=0;bottom=0;right=0;collapsible=0;dropTarget=0;fillColor=none;points=[[0,0.5],[1,0.5]];portConstraint=eastwest;" vertex="1" parent="NbmsGISIxCD2SphW_Kis-157">
          <mxGeometry y="200" width="380" height="40" as="geometry" />
        </mxCell>
        <mxCell id="NbmsGISIxCD2SphW_Kis-179" value="gender" style="shape=partialRectangle;html=1;whiteSpace=wrap;connectable=0;strokeColor=inherit;overflow=hidden;fillColor=none;top=0;left=0;bottom=0;right=0;pointerEvents=1;" vertex="1" parent="NbmsGISIxCD2SphW_Kis-178">
          <mxGeometry width="127" height="40" as="geometry">
            <mxRectangle width="127" height="40" as="alternateBounds" />
          </mxGeometry>
        </mxCell>
        <mxCell id="NbmsGISIxCD2SphW_Kis-180" value="VARCHAR(15)" style="shape=partialRectangle;html=1;whiteSpace=wrap;connectable=0;strokeColor=inherit;overflow=hidden;fillColor=none;top=0;left=0;bottom=0;right=0;pointerEvents=1;" vertex="1" parent="NbmsGISIxCD2SphW_Kis-178">
          <mxGeometry x="127" width="126" height="40" as="geometry">
            <mxRectangle width="126" height="40" as="alternateBounds" />
          </mxGeometry>
        </mxCell>
        <mxCell id="NbmsGISIxCD2SphW_Kis-181" value="NOT NULL" style="shape=partialRectangle;html=1;whiteSpace=wrap;connectable=0;strokeColor=inherit;overflow=hidden;fillColor=none;top=0;left=0;bottom=0;right=0;pointerEvents=1;" vertex="1" parent="NbmsGISIxCD2SphW_Kis-178">
          <mxGeometry x="253" width="127" height="40" as="geometry">
            <mxRectangle width="127" height="40" as="alternateBounds" />
          </mxGeometry>
        </mxCell>
        <mxCell id="NbmsGISIxCD2SphW_Kis-182" value="" style="shape=tableRow;horizontal=0;startSize=0;swimlaneHead=0;swimlaneBody=0;strokeColor=inherit;top=0;left=0;bottom=0;right=0;collapsible=0;dropTarget=0;fillColor=none;points=[[0,0.5],[1,0.5]];portConstraint=eastwest;" vertex="1" parent="NbmsGISIxCD2SphW_Kis-157">
          <mxGeometry y="240" width="380" height="40" as="geometry" />
        </mxCell>
        <mxCell id="NbmsGISIxCD2SphW_Kis-183" value="grade" style="shape=partialRectangle;html=1;whiteSpace=wrap;connectable=0;strokeColor=inherit;overflow=hidden;fillColor=none;top=0;left=0;bottom=0;right=0;pointerEvents=1;" vertex="1" parent="NbmsGISIxCD2SphW_Kis-182">
          <mxGeometry width="127" height="40" as="geometry">
            <mxRectangle width="127" height="40" as="alternateBounds" />
          </mxGeometry>
        </mxCell>
        <mxCell id="NbmsGISIxCD2SphW_Kis-184" value="VARCHAR(15)" style="shape=partialRectangle;html=1;whiteSpace=wrap;connectable=0;strokeColor=inherit;overflow=hidden;fillColor=none;top=0;left=0;bottom=0;right=0;pointerEvents=1;" vertex="1" parent="NbmsGISIxCD2SphW_Kis-182">
          <mxGeometry x="127" width="126" height="40" as="geometry">
            <mxRectangle width="126" height="40" as="alternateBounds" />
          </mxGeometry>
        </mxCell>
        <mxCell id="NbmsGISIxCD2SphW_Kis-185" value="NOT NUL" style="shape=partialRectangle;html=1;whiteSpace=wrap;connectable=0;strokeColor=inherit;overflow=hidden;fillColor=none;top=0;left=0;bottom=0;right=0;pointerEvents=1;" vertex="1" parent="NbmsGISIxCD2SphW_Kis-182">
          <mxGeometry x="253" width="127" height="40" as="geometry">
            <mxRectangle width="127" height="40" as="alternateBounds" />
          </mxGeometry>
        </mxCell>
        <mxCell id="NbmsGISIxCD2SphW_Kis-186" value="" style="shape=table;startSize=0;container=1;collapsible=0;childLayout=tableLayout;" vertex="1" parent="1">
          <mxGeometry x="560" y="600" width="320" height="280" as="geometry" />
        </mxCell>
        <mxCell id="NbmsGISIxCD2SphW_Kis-187" value="" style="shape=tableRow;horizontal=0;startSize=0;swimlaneHead=0;swimlaneBody=0;strokeColor=inherit;top=0;left=0;bottom=0;right=0;collapsible=0;dropTarget=0;fillColor=none;points=[[0,0.5],[1,0.5]];portConstraint=eastwest;" vertex="1" parent="NbmsGISIxCD2SphW_Kis-186">
          <mxGeometry width="320" height="40" as="geometry" />
        </mxCell>
        <mxCell id="NbmsGISIxCD2SphW_Kis-188" value="FIELD" style="shape=partialRectangle;html=1;whiteSpace=wrap;connectable=0;strokeColor=inherit;overflow=hidden;fillColor=none;top=0;left=0;bottom=0;right=0;pointerEvents=1;" vertex="1" parent="NbmsGISIxCD2SphW_Kis-187">
          <mxGeometry width="107" height="40" as="geometry">
            <mxRectangle width="107" height="40" as="alternateBounds" />
          </mxGeometry>
        </mxCell>
        <mxCell id="NbmsGISIxCD2SphW_Kis-189" value="DATA TYPE" style="shape=partialRectangle;html=1;whiteSpace=wrap;connectable=0;strokeColor=inherit;overflow=hidden;fillColor=none;top=0;left=0;bottom=0;right=0;pointerEvents=1;" vertex="1" parent="NbmsGISIxCD2SphW_Kis-187">
          <mxGeometry x="107" width="106" height="40" as="geometry">
            <mxRectangle width="106" height="40" as="alternateBounds" />
          </mxGeometry>
        </mxCell>
        <mxCell id="NbmsGISIxCD2SphW_Kis-190" value="CONSTRAINTS" style="shape=partialRectangle;html=1;whiteSpace=wrap;connectable=0;strokeColor=inherit;overflow=hidden;fillColor=none;top=0;left=0;bottom=0;right=0;pointerEvents=1;" vertex="1" parent="NbmsGISIxCD2SphW_Kis-187">
          <mxGeometry x="213" width="107" height="40" as="geometry">
            <mxRectangle width="107" height="40" as="alternateBounds" />
          </mxGeometry>
        </mxCell>
        <mxCell id="NbmsGISIxCD2SphW_Kis-191" value="" style="shape=tableRow;horizontal=0;startSize=0;swimlaneHead=0;swimlaneBody=0;strokeColor=inherit;top=0;left=0;bottom=0;right=0;collapsible=0;dropTarget=0;fillColor=none;points=[[0,0.5],[1,0.5]];portConstraint=eastwest;" vertex="1" parent="NbmsGISIxCD2SphW_Kis-186">
          <mxGeometry y="40" width="320" height="40" as="geometry" />
        </mxCell>
        <mxCell id="NbmsGISIxCD2SphW_Kis-192" value="teacher_id" style="shape=partialRectangle;html=1;whiteSpace=wrap;connectable=0;strokeColor=inherit;overflow=hidden;fillColor=none;top=0;left=0;bottom=0;right=0;pointerEvents=1;" vertex="1" parent="NbmsGISIxCD2SphW_Kis-191">
          <mxGeometry width="107" height="40" as="geometry">
            <mxRectangle width="107" height="40" as="alternateBounds" />
          </mxGeometry>
        </mxCell>
        <mxCell id="NbmsGISIxCD2SphW_Kis-193" value="INT" style="shape=partialRectangle;html=1;whiteSpace=wrap;connectable=0;strokeColor=inherit;overflow=hidden;fillColor=none;top=0;left=0;bottom=0;right=0;pointerEvents=1;" vertex="1" parent="NbmsGISIxCD2SphW_Kis-191">
          <mxGeometry x="107" width="106" height="40" as="geometry">
            <mxRectangle width="106" height="40" as="alternateBounds" />
          </mxGeometry>
        </mxCell>
        <mxCell id="NbmsGISIxCD2SphW_Kis-194" value="PK(AUTO INCREMENT)" style="shape=partialRectangle;html=1;whiteSpace=wrap;connectable=0;strokeColor=inherit;overflow=hidden;fillColor=none;top=0;left=0;bottom=0;right=0;pointerEvents=1;" vertex="1" parent="NbmsGISIxCD2SphW_Kis-191">
          <mxGeometry x="213" width="107" height="40" as="geometry">
            <mxRectangle width="107" height="40" as="alternateBounds" />
          </mxGeometry>
        </mxCell>
        <mxCell id="NbmsGISIxCD2SphW_Kis-195" value="" style="shape=tableRow;horizontal=0;startSize=0;swimlaneHead=0;swimlaneBody=0;strokeColor=inherit;top=0;left=0;bottom=0;right=0;collapsible=0;dropTarget=0;fillColor=none;points=[[0,0.5],[1,0.5]];portConstraint=eastwest;" vertex="1" parent="NbmsGISIxCD2SphW_Kis-186">
          <mxGeometry y="80" width="320" height="40" as="geometry" />
        </mxCell>
        <mxCell id="NbmsGISIxCD2SphW_Kis-196" value="first_name" style="shape=partialRectangle;html=1;whiteSpace=wrap;connectable=0;strokeColor=inherit;overflow=hidden;fillColor=none;top=0;left=0;bottom=0;right=0;pointerEvents=1;" vertex="1" parent="NbmsGISIxCD2SphW_Kis-195">
          <mxGeometry width="107" height="40" as="geometry">
            <mxRectangle width="107" height="40" as="alternateBounds" />
          </mxGeometry>
        </mxCell>
        <mxCell id="NbmsGISIxCD2SphW_Kis-197" value="VARCHAR(20)" style="shape=partialRectangle;html=1;whiteSpace=wrap;connectable=0;strokeColor=inherit;overflow=hidden;fillColor=none;top=0;left=0;bottom=0;right=0;pointerEvents=1;" vertex="1" parent="NbmsGISIxCD2SphW_Kis-195">
          <mxGeometry x="107" width="106" height="40" as="geometry">
            <mxRectangle width="106" height="40" as="alternateBounds" />
          </mxGeometry>
        </mxCell>
        <mxCell id="NbmsGISIxCD2SphW_Kis-198" value="NOT NULL" style="shape=partialRectangle;html=1;whiteSpace=wrap;connectable=0;strokeColor=inherit;overflow=hidden;fillColor=none;top=0;left=0;bottom=0;right=0;pointerEvents=1;" vertex="1" parent="NbmsGISIxCD2SphW_Kis-195">
          <mxGeometry x="213" width="107" height="40" as="geometry">
            <mxRectangle width="107" height="40" as="alternateBounds" />
          </mxGeometry>
        </mxCell>
        <mxCell id="NbmsGISIxCD2SphW_Kis-199" value="" style="shape=tableRow;horizontal=0;startSize=0;swimlaneHead=0;swimlaneBody=0;strokeColor=inherit;top=0;left=0;bottom=0;right=0;collapsible=0;dropTarget=0;fillColor=none;points=[[0,0.5],[1,0.5]];portConstraint=eastwest;" vertex="1" parent="NbmsGISIxCD2SphW_Kis-186">
          <mxGeometry y="120" width="320" height="40" as="geometry" />
        </mxCell>
        <mxCell id="NbmsGISIxCD2SphW_Kis-200" value="last_name" style="shape=partialRectangle;html=1;whiteSpace=wrap;connectable=0;strokeColor=inherit;overflow=hidden;fillColor=none;top=0;left=0;bottom=0;right=0;pointerEvents=1;" vertex="1" parent="NbmsGISIxCD2SphW_Kis-199">
          <mxGeometry width="107" height="40" as="geometry">
            <mxRectangle width="107" height="40" as="alternateBounds" />
          </mxGeometry>
        </mxCell>
        <mxCell id="NbmsGISIxCD2SphW_Kis-201" value="VARCHAR(20)" style="shape=partialRectangle;html=1;whiteSpace=wrap;connectable=0;strokeColor=inherit;overflow=hidden;fillColor=none;top=0;left=0;bottom=0;right=0;pointerEvents=1;" vertex="1" parent="NbmsGISIxCD2SphW_Kis-199">
          <mxGeometry x="107" width="106" height="40" as="geometry">
            <mxRectangle width="106" height="40" as="alternateBounds" />
          </mxGeometry>
        </mxCell>
        <mxCell id="NbmsGISIxCD2SphW_Kis-202" value="NOT NULL" style="shape=partialRectangle;html=1;whiteSpace=wrap;connectable=0;strokeColor=inherit;overflow=hidden;fillColor=none;top=0;left=0;bottom=0;right=0;pointerEvents=1;" vertex="1" parent="NbmsGISIxCD2SphW_Kis-199">
          <mxGeometry x="213" width="107" height="40" as="geometry">
            <mxRectangle width="107" height="40" as="alternateBounds" />
          </mxGeometry>
        </mxCell>
        <mxCell id="NbmsGISIxCD2SphW_Kis-203" value="" style="shape=tableRow;horizontal=0;startSize=0;swimlaneHead=0;swimlaneBody=0;strokeColor=inherit;top=0;left=0;bottom=0;right=0;collapsible=0;dropTarget=0;fillColor=none;points=[[0,0.5],[1,0.5]];portConstraint=eastwest;" vertex="1" parent="NbmsGISIxCD2SphW_Kis-186">
          <mxGeometry y="160" width="320" height="40" as="geometry" />
        </mxCell>
        <mxCell id="NbmsGISIxCD2SphW_Kis-204" value="subject" style="shape=partialRectangle;html=1;whiteSpace=wrap;connectable=0;strokeColor=inherit;overflow=hidden;fillColor=none;top=0;left=0;bottom=0;right=0;pointerEvents=1;" vertex="1" parent="NbmsGISIxCD2SphW_Kis-203">
          <mxGeometry width="107" height="40" as="geometry">
            <mxRectangle width="107" height="40" as="alternateBounds" />
          </mxGeometry>
        </mxCell>
        <mxCell id="NbmsGISIxCD2SphW_Kis-205" value="VARCHAR(20)" style="shape=partialRectangle;html=1;whiteSpace=wrap;connectable=0;strokeColor=inherit;overflow=hidden;fillColor=none;top=0;left=0;bottom=0;right=0;pointerEvents=1;" vertex="1" parent="NbmsGISIxCD2SphW_Kis-203">
          <mxGeometry x="107" width="106" height="40" as="geometry">
            <mxRectangle width="106" height="40" as="alternateBounds" />
          </mxGeometry>
        </mxCell>
        <mxCell id="NbmsGISIxCD2SphW_Kis-206" value="" style="shape=partialRectangle;html=1;whiteSpace=wrap;connectable=0;strokeColor=inherit;overflow=hidden;fillColor=none;top=0;left=0;bottom=0;right=0;pointerEvents=1;" vertex="1" parent="NbmsGISIxCD2SphW_Kis-203">
          <mxGeometry x="213" width="107" height="40" as="geometry">
            <mxRectangle width="107" height="40" as="alternateBounds" />
          </mxGeometry>
        </mxCell>
        <mxCell id="NbmsGISIxCD2SphW_Kis-207" value="" style="shape=tableRow;horizontal=0;startSize=0;swimlaneHead=0;swimlaneBody=0;strokeColor=inherit;top=0;left=0;bottom=0;right=0;collapsible=0;dropTarget=0;fillColor=none;points=[[0,0.5],[1,0.5]];portConstraint=eastwest;" vertex="1" parent="NbmsGISIxCD2SphW_Kis-186">
          <mxGeometry y="200" width="320" height="40" as="geometry" />
        </mxCell>
        <mxCell id="NbmsGISIxCD2SphW_Kis-208" value="email_addess" style="shape=partialRectangle;html=1;whiteSpace=wrap;connectable=0;strokeColor=inherit;overflow=hidden;fillColor=none;top=0;left=0;bottom=0;right=0;pointerEvents=1;" vertex="1" parent="NbmsGISIxCD2SphW_Kis-207">
          <mxGeometry width="107" height="40" as="geometry">
            <mxRectangle width="107" height="40" as="alternateBounds" />
          </mxGeometry>
        </mxCell>
        <mxCell id="NbmsGISIxCD2SphW_Kis-209" value="VARCHAR(20)" style="shape=partialRectangle;html=1;whiteSpace=wrap;connectable=0;strokeColor=inherit;overflow=hidden;fillColor=none;top=0;left=0;bottom=0;right=0;pointerEvents=1;" vertex="1" parent="NbmsGISIxCD2SphW_Kis-207">
          <mxGeometry x="107" width="106" height="40" as="geometry">
            <mxRectangle width="106" height="40" as="alternateBounds" />
          </mxGeometry>
        </mxCell>
        <mxCell id="NbmsGISIxCD2SphW_Kis-210" value="" style="shape=partialRectangle;html=1;whiteSpace=wrap;connectable=0;strokeColor=inherit;overflow=hidden;fillColor=none;top=0;left=0;bottom=0;right=0;pointerEvents=1;" vertex="1" parent="NbmsGISIxCD2SphW_Kis-207">
          <mxGeometry x="213" width="107" height="40" as="geometry">
            <mxRectangle width="107" height="40" as="alternateBounds" />
          </mxGeometry>
        </mxCell>
        <mxCell id="NbmsGISIxCD2SphW_Kis-211" value="" style="shape=tableRow;horizontal=0;startSize=0;swimlaneHead=0;swimlaneBody=0;strokeColor=inherit;top=0;left=0;bottom=0;right=0;collapsible=0;dropTarget=0;fillColor=none;points=[[0,0.5],[1,0.5]];portConstraint=eastwest;" vertex="1" parent="NbmsGISIxCD2SphW_Kis-186">
          <mxGeometry y="240" width="320" height="40" as="geometry" />
        </mxCell>
        <mxCell id="NbmsGISIxCD2SphW_Kis-212" value="date_joined" style="shape=partialRectangle;html=1;whiteSpace=wrap;connectable=0;strokeColor=inherit;overflow=hidden;fillColor=none;top=0;left=0;bottom=0;right=0;pointerEvents=1;" vertex="1" parent="NbmsGISIxCD2SphW_Kis-211">
          <mxGeometry width="107" height="40" as="geometry">
            <mxRectangle width="107" height="40" as="alternateBounds" />
          </mxGeometry>
        </mxCell>
        <mxCell id="NbmsGISIxCD2SphW_Kis-213" value="DATE" style="shape=partialRectangle;html=1;whiteSpace=wrap;connectable=0;strokeColor=inherit;overflow=hidden;fillColor=none;top=0;left=0;bottom=0;right=0;pointerEvents=1;" vertex="1" parent="NbmsGISIxCD2SphW_Kis-211">
          <mxGeometry x="107" width="106" height="40" as="geometry">
            <mxRectangle width="106" height="40" as="alternateBounds" />
          </mxGeometry>
        </mxCell>
        <mxCell id="NbmsGISIxCD2SphW_Kis-214" value="NOT NULL" style="shape=partialRectangle;html=1;whiteSpace=wrap;connectable=0;strokeColor=inherit;overflow=hidden;fillColor=none;top=0;left=0;bottom=0;right=0;pointerEvents=1;" vertex="1" parent="NbmsGISIxCD2SphW_Kis-211">
          <mxGeometry x="213" width="107" height="40" as="geometry">
            <mxRectangle width="107" height="40" as="alternateBounds" />
          </mxGeometry>
        </mxCell>
        <mxCell id="NbmsGISIxCD2SphW_Kis-215" value="" style="shape=table;startSize=0;container=1;collapsible=0;childLayout=tableLayout;" vertex="1" parent="1">
          <mxGeometry x="370" y="990" width="360" height="242" as="geometry" />
        </mxCell>
        <mxCell id="NbmsGISIxCD2SphW_Kis-216" value="" style="shape=tableRow;horizontal=0;startSize=0;swimlaneHead=0;swimlaneBody=0;strokeColor=inherit;top=0;left=0;bottom=0;right=0;collapsible=0;dropTarget=0;fillColor=none;points=[[0,0.5],[1,0.5]];portConstraint=eastwest;" vertex="1" parent="NbmsGISIxCD2SphW_Kis-215">
          <mxGeometry width="360" height="50" as="geometry" />
        </mxCell>
        <mxCell id="NbmsGISIxCD2SphW_Kis-217" value="FIELD" style="shape=partialRectangle;html=1;whiteSpace=wrap;connectable=0;strokeColor=inherit;overflow=hidden;fillColor=none;top=0;left=0;bottom=0;right=0;pointerEvents=1;" vertex="1" parent="NbmsGISIxCD2SphW_Kis-216">
          <mxGeometry width="120" height="50" as="geometry">
            <mxRectangle width="120" height="50" as="alternateBounds" />
          </mxGeometry>
        </mxCell>
        <mxCell id="NbmsGISIxCD2SphW_Kis-218" value="DATA TYPE" style="shape=partialRectangle;html=1;whiteSpace=wrap;connectable=0;strokeColor=inherit;overflow=hidden;fillColor=none;top=0;left=0;bottom=0;right=0;pointerEvents=1;" vertex="1" parent="NbmsGISIxCD2SphW_Kis-216">
          <mxGeometry x="120" width="120" height="50" as="geometry">
            <mxRectangle width="120" height="50" as="alternateBounds" />
          </mxGeometry>
        </mxCell>
        <mxCell id="NbmsGISIxCD2SphW_Kis-219" value="CONSTRAINTS" style="shape=partialRectangle;html=1;whiteSpace=wrap;connectable=0;strokeColor=inherit;overflow=hidden;fillColor=none;top=0;left=0;bottom=0;right=0;pointerEvents=1;" vertex="1" parent="NbmsGISIxCD2SphW_Kis-216">
          <mxGeometry x="240" width="120" height="50" as="geometry">
            <mxRectangle width="120" height="50" as="alternateBounds" />
          </mxGeometry>
        </mxCell>
        <mxCell id="NbmsGISIxCD2SphW_Kis-220" value="" style="shape=tableRow;horizontal=0;startSize=0;swimlaneHead=0;swimlaneBody=0;strokeColor=inherit;top=0;left=0;bottom=0;right=0;collapsible=0;dropTarget=0;fillColor=none;points=[[0,0.5],[1,0.5]];portConstraint=eastwest;" vertex="1" parent="NbmsGISIxCD2SphW_Kis-215">
          <mxGeometry y="50" width="360" height="48" as="geometry" />
        </mxCell>
        <mxCell id="NbmsGISIxCD2SphW_Kis-221" value="class_id" style="shape=partialRectangle;html=1;whiteSpace=wrap;connectable=0;strokeColor=inherit;overflow=hidden;fillColor=none;top=0;left=0;bottom=0;right=0;pointerEvents=1;" vertex="1" parent="NbmsGISIxCD2SphW_Kis-220">
          <mxGeometry width="120" height="48" as="geometry">
            <mxRectangle width="120" height="48" as="alternateBounds" />
          </mxGeometry>
        </mxCell>
        <mxCell id="NbmsGISIxCD2SphW_Kis-222" value="INT" style="shape=partialRectangle;html=1;whiteSpace=wrap;connectable=0;strokeColor=inherit;overflow=hidden;fillColor=none;top=0;left=0;bottom=0;right=0;pointerEvents=1;" vertex="1" parent="NbmsGISIxCD2SphW_Kis-220">
          <mxGeometry x="120" width="120" height="48" as="geometry">
            <mxRectangle width="120" height="48" as="alternateBounds" />
          </mxGeometry>
        </mxCell>
        <mxCell id="NbmsGISIxCD2SphW_Kis-223" value="PK(AUTO INCREMENT)" style="shape=partialRectangle;html=1;whiteSpace=wrap;connectable=0;strokeColor=inherit;overflow=hidden;fillColor=none;top=0;left=0;bottom=0;right=0;pointerEvents=1;" vertex="1" parent="NbmsGISIxCD2SphW_Kis-220">
          <mxGeometry x="240" width="120" height="48" as="geometry">
            <mxRectangle width="120" height="48" as="alternateBounds" />
          </mxGeometry>
        </mxCell>
        <mxCell id="NbmsGISIxCD2SphW_Kis-224" value="" style="shape=tableRow;horizontal=0;startSize=0;swimlaneHead=0;swimlaneBody=0;strokeColor=inherit;top=0;left=0;bottom=0;right=0;collapsible=0;dropTarget=0;fillColor=none;points=[[0,0.5],[1,0.5]];portConstraint=eastwest;" vertex="1" parent="NbmsGISIxCD2SphW_Kis-215">
          <mxGeometry y="98" width="360" height="48" as="geometry" />
        </mxCell>
        <mxCell id="NbmsGISIxCD2SphW_Kis-225" value="class_name" style="shape=partialRectangle;html=1;whiteSpace=wrap;connectable=0;strokeColor=inherit;overflow=hidden;fillColor=none;top=0;left=0;bottom=0;right=0;pointerEvents=1;" vertex="1" parent="NbmsGISIxCD2SphW_Kis-224">
          <mxGeometry width="120" height="48" as="geometry">
            <mxRectangle width="120" height="48" as="alternateBounds" />
          </mxGeometry>
        </mxCell>
        <mxCell id="NbmsGISIxCD2SphW_Kis-226" value="VARCHAR(20)" style="shape=partialRectangle;html=1;whiteSpace=wrap;connectable=0;strokeColor=inherit;overflow=hidden;fillColor=none;top=0;left=0;bottom=0;right=0;pointerEvents=1;" vertex="1" parent="NbmsGISIxCD2SphW_Kis-224">
          <mxGeometry x="120" width="120" height="48" as="geometry">
            <mxRectangle width="120" height="48" as="alternateBounds" />
          </mxGeometry>
        </mxCell>
        <mxCell id="NbmsGISIxCD2SphW_Kis-227" value="NOT NULL" style="shape=partialRectangle;html=1;whiteSpace=wrap;connectable=0;strokeColor=inherit;overflow=hidden;fillColor=none;top=0;left=0;bottom=0;right=0;pointerEvents=1;" vertex="1" parent="NbmsGISIxCD2SphW_Kis-224">
          <mxGeometry x="240" width="120" height="48" as="geometry">
            <mxRectangle width="120" height="48" as="alternateBounds" />
          </mxGeometry>
        </mxCell>
        <mxCell id="NbmsGISIxCD2SphW_Kis-228" value="" style="shape=tableRow;horizontal=0;startSize=0;swimlaneHead=0;swimlaneBody=0;strokeColor=inherit;top=0;left=0;bottom=0;right=0;collapsible=0;dropTarget=0;fillColor=none;points=[[0,0.5],[1,0.5]];portConstraint=eastwest;" vertex="1" parent="NbmsGISIxCD2SphW_Kis-215">
          <mxGeometry y="146" width="360" height="48" as="geometry" />
        </mxCell>
        <mxCell id="NbmsGISIxCD2SphW_Kis-229" value="teacher_id" style="shape=partialRectangle;html=1;whiteSpace=wrap;connectable=0;strokeColor=inherit;overflow=hidden;fillColor=none;top=0;left=0;bottom=0;right=0;pointerEvents=1;" vertex="1" parent="NbmsGISIxCD2SphW_Kis-228">
          <mxGeometry width="120" height="48" as="geometry">
            <mxRectangle width="120" height="48" as="alternateBounds" />
          </mxGeometry>
        </mxCell>
        <mxCell id="NbmsGISIxCD2SphW_Kis-230" value="INT" style="shape=partialRectangle;html=1;whiteSpace=wrap;connectable=0;strokeColor=inherit;overflow=hidden;fillColor=none;top=0;left=0;bottom=0;right=0;pointerEvents=1;" vertex="1" parent="NbmsGISIxCD2SphW_Kis-228">
          <mxGeometry x="120" width="120" height="48" as="geometry">
            <mxRectangle width="120" height="48" as="alternateBounds" />
          </mxGeometry>
        </mxCell>
        <mxCell id="NbmsGISIxCD2SphW_Kis-231" value="Fk REFERENCES teachers(teacher_id)" style="shape=partialRectangle;html=1;whiteSpace=wrap;connectable=0;strokeColor=inherit;overflow=hidden;fillColor=none;top=0;left=0;bottom=0;right=0;pointerEvents=1;" vertex="1" parent="NbmsGISIxCD2SphW_Kis-228">
          <mxGeometry x="240" width="120" height="48" as="geometry">
            <mxRectangle width="120" height="48" as="alternateBounds" />
          </mxGeometry>
        </mxCell>
        <mxCell id="NbmsGISIxCD2SphW_Kis-232" value="" style="shape=tableRow;horizontal=0;startSize=0;swimlaneHead=0;swimlaneBody=0;strokeColor=inherit;top=0;left=0;bottom=0;right=0;collapsible=0;dropTarget=0;fillColor=none;points=[[0,0.5],[1,0.5]];portConstraint=eastwest;" vertex="1" parent="NbmsGISIxCD2SphW_Kis-215">
          <mxGeometry y="194" width="360" height="48" as="geometry" />
        </mxCell>
        <mxCell id="NbmsGISIxCD2SphW_Kis-233" value="grade" style="shape=partialRectangle;html=1;whiteSpace=wrap;connectable=0;strokeColor=inherit;overflow=hidden;fillColor=none;top=0;left=0;bottom=0;right=0;pointerEvents=1;" vertex="1" parent="NbmsGISIxCD2SphW_Kis-232">
          <mxGeometry width="120" height="48" as="geometry">
            <mxRectangle width="120" height="48" as="alternateBounds" />
          </mxGeometry>
        </mxCell>
        <mxCell id="NbmsGISIxCD2SphW_Kis-234" value="VARCHAR(20)" style="shape=partialRectangle;html=1;whiteSpace=wrap;connectable=0;strokeColor=inherit;overflow=hidden;fillColor=none;top=0;left=0;bottom=0;right=0;pointerEvents=1;" vertex="1" parent="NbmsGISIxCD2SphW_Kis-232">
          <mxGeometry x="120" width="120" height="48" as="geometry">
            <mxRectangle width="120" height="48" as="alternateBounds" />
          </mxGeometry>
        </mxCell>
        <mxCell id="NbmsGISIxCD2SphW_Kis-235" value="NOT NULL" style="shape=partialRectangle;html=1;whiteSpace=wrap;connectable=0;strokeColor=inherit;overflow=hidden;fillColor=none;top=0;left=0;bottom=0;right=0;pointerEvents=1;" vertex="1" parent="NbmsGISIxCD2SphW_Kis-232">
          <mxGeometry x="240" width="120" height="48" as="geometry">
            <mxRectangle width="120" height="48" as="alternateBounds" />
          </mxGeometry>
        </mxCell>
        <mxCell id="NbmsGISIxCD2SphW_Kis-236" value="" style="endArrow=classic;html=1;rounded=0;entryX=0.392;entryY=1.225;entryDx=0;entryDy=0;entryPerimeter=0;" edge="1" parent="1" target="NbmsGISIxCD2SphW_Kis-211">
          <mxGeometry width="50" height="50" relative="1" as="geometry">
            <mxPoint x="570" y="990" as="sourcePoint" />
            <mxPoint x="620" y="940" as="targetPoint" />
            <Array as="points" />
          </mxGeometry>
        </mxCell>
        <mxCell id="NbmsGISIxCD2SphW_Kis-239" value="" style="endArrow=classic;html=1;rounded=0;entryX=0.264;entryY=-0.153;entryDx=0;entryDy=0;entryPerimeter=0;exitX=0.756;exitY=1.092;exitDx=0;exitDy=0;exitPerimeter=0;" edge="1" parent="1" source="NbmsGISIxCD2SphW_Kis-182" target="NbmsGISIxCD2SphW_Kis-216">
          <mxGeometry width="50" height="50" relative="1" as="geometry">
            <mxPoint x="380" y="990" as="sourcePoint" />
            <mxPoint x="495" y="889" as="targetPoint" />
            <Array as="points" />
          </mxGeometry>
        </mxCell>
        <mxCell id="NbmsGISIxCD2SphW_Kis-240" value="STUDENTS TABLE" style="text;html=1;align=center;verticalAlign=middle;whiteSpace=wrap;rounded=0;" vertex="1" parent="1">
          <mxGeometry x="80" y="570" width="230" height="30" as="geometry" />
        </mxCell>
        <mxCell id="NbmsGISIxCD2SphW_Kis-241" value="TEACHERS TABLE" style="text;html=1;align=center;verticalAlign=middle;whiteSpace=wrap;rounded=0;" vertex="1" parent="1">
          <mxGeometry x="560" y="570" width="220" height="30" as="geometry" />
        </mxCell>
        <mxCell id="NbmsGISIxCD2SphW_Kis-243" value="CLASSES" style="text;html=1;align=center;verticalAlign=middle;whiteSpace=wrap;rounded=0;" vertex="1" parent="1">
          <mxGeometry x="370" y="960" width="60" height="30" as="geometry" />
        </mxCell>
        <mxCell id="NbmsGISIxCD2SphW_Kis-244" value="" style="endArrow=classic;html=1;rounded=0;exitX=0.644;exitY=1.025;exitDx=0;exitDy=0;exitPerimeter=0;" edge="1" parent="1" source="NbmsGISIxCD2SphW_Kis-211">
          <mxGeometry width="50" height="50" relative="1" as="geometry">
            <mxPoint x="640" y="971" as="sourcePoint" />
            <mxPoint x="706" y="990" as="targetPoint" />
            <Array as="points" />
          </mxGeometry>
        </mxCell>
      </root>
    </mxGraphModel>
  </diagram>
</mxfile>
